<svg version="1.1" xmlns="http://www.w3.org/2000/svg" xmlns:xlink="http://www.w3.org/1999/xlink" width="81.28914" height="81.15943" viewBox="0,0,81.28914,81.15943"><g transform="translate(-199.3555,-139.42007)"><g data-paper-data="{&quot;isPaintingLayer&quot;:true}" fill-rule="nonzero" stroke="none" stroke-linecap="butt" stroke-linejoin="miter" stroke-miterlimit="10" stroke-dasharray="" stroke-dashoffset="0" style="mix-blend-mode: normal"><path d="M280.6435,181.0515c-0.614,22.165 -18.456,39.528 -40.616,39.528c-22.427,0 -40.672,-18.245 -40.672,-40.669c0,-21.044 15.778,-38.443 36.7,-40.475c1.339,-0.133 2.605,0.604 3.157,1.826c0.555,1.222 0.272,2.661 -0.705,3.579c-5.1,4.801 -7.908,11.279 -7.908,18.242c0,13.828 11.25,25.083 25.083,25.083c7.545,0 14.612,-3.352 19.403,-9.192c0.849,-1.038 2.272,-1.414 3.518,-0.95c1.26,0.468 2.076,1.687 2.04,3.028zM273.1635,189.1165c-5.106,3.44 -11.162,5.322 -17.479,5.322c-17.292,0 -31.357,-14.063 -31.357,-31.355c0,-5.583 1.442,-10.916 4.156,-15.605c-13.47,4.74 -22.859,17.5 -22.859,32.43c0,18.97 15.431,34.4 34.402,34.4c15.886,0 29.149,-10.554 33.137,-25.192z" fill="#000000" stroke-width="1"/><path d="M240.02745,214.35849c-18.971,0 -34.45293,-15.48145 -34.45293,-34.45145c0,-14.93 9.42346,-27.73607 22.89346,-32.47607c-2.714,4.689 -4.10819,10.1077 -4.10819,15.6907c0,17.292 13.99426,31.28486 31.28626,31.28486c6.317,0 12.46003,-1.8382 17.56603,-5.2782c-3.988,14.638 -17.29863,25.23016 -33.18463,25.23016z" data-paper-data="{&quot;noHover&quot;:false,&quot;origItem&quot;:[&quot;Path&quot;,{&quot;applyMatrix&quot;:true,&quot;segments&quot;:[[[273.1635,189.1165],[-3.988,14.638],[-5.106,3.44]],[[255.6845,194.4385],[6.317,0],[-17.292,0]],[[224.3275,163.0835],[0,17.292],[0,-5.583]],[[228.4835,147.4785],[-2.714,4.689],[-13.47,4.74]],[[205.6245,179.9085],[0,-14.93],[0,18.97]],[[240.0265,214.3085],[-18.971,0],[15.886,0]]],&quot;closed&quot;:true,&quot;fillColor&quot;:[0,0,0,1]}]}" fill="#ffffff" stroke-width="0.5"/><g fill="#000000" stroke-width="1" font-family="&quot;Helvetica Neue&quot;, Helvetica, Arial, sans-serif" font-weight="400" font-size="16" text-anchor="start"/><g fill="#000000" stroke-width="1" font-family="&quot;Helvetica Neue&quot;, Helvetica, Arial, sans-serif" font-weight="400" font-size="16" text-anchor="start"/><g fill="#000000" stroke-width="1" font-family="&quot;Helvetica Neue&quot;, Helvetica, Arial, sans-serif" font-weight="400" font-size="16" text-anchor="start"/><g fill="#000000" stroke-width="1" font-family="&quot;Helvetica Neue&quot;, Helvetica, Arial, sans-serif" font-weight="400" font-size="16" text-anchor="start"/><g fill="#000000" stroke-width="1" font-family="&quot;Helvetica Neue&quot;, Helvetica, Arial, sans-serif" font-weight="400" font-size="16" text-anchor="start"/><g fill="#000000" stroke-width="1" font-family="&quot;Helvetica Neue&quot;, Helvetica, Arial, sans-serif" font-weight="400" font-size="16" text-anchor="start"/><g fill="#000000" stroke-width="1" font-family="&quot;Helvetica Neue&quot;, Helvetica, Arial, sans-serif" font-weight="400" font-size="16" text-anchor="start"/></g></g></svg>